PLOT

A newly released ex-con and former US Ranger finds himself trapped in a prisoner transport plane when
the passengers seize control.

Encoded By .......: BigPerm1828
Runtime ..........: 1h 55mn
File Size ........: 1.09 GB
Resolution .......: 704 x 396
IMDb URL .........: http://www.imdb.com/title/tt0118880/
Genre ............: Action | Crime | Thriller
Language .........: English
Video
ID : 0
Format : MPEG-4 Visual
Format profile : Advanced Simple@L5
Format settings, BVOP : Yes
Format settings, QPel : No
Format settings, GMC : No warppoints
Format settings, Matrix : Default (H.263)
Codec ID : XVID
Codec ID/Hint : XviD
Duration : 1h 55mn
Bit rate : 42.9 Kbps
Width : 704 pixels
Height : 396 pixels
Display aspect ratio : 16:9
Frame rate : 23.976 fps
Color space : YUV
Chroma subsampling : 4:2:0
Bit depth : 8 bits
Scan type : Progressive
Compression mode : Lossy
Bits/(Pixel*Frame) : 0.006
Stream size : 35.4 MiB (3%)
Writing library : XviD 1.2.1 (UTC 2008-12-04)

Audio
ID : 1
Format : AC-3
Format/Info : Audio Coding 3
Codec ID : 2000
Duration : 1h 55mn
Bit rate mode : Constant
Bit rate : 448 Kbps
Channel(s) : 6 channels
Sampling rate : 48.0 KHz
Bit depth : 16 bits
Compression mode : Lossy
Stream size : 370 MiB (33%)
Alignment : Aligned on interleaves
 
http://www.imdb.com/title/tt0118880/
 
http://leetleech.org/images/07944076294382065962.png
 
http://leetleech.org/images/47028012922076538816.png
 
http://leetleech.org/images/40699698245806892175.png
 
http://leetleech.org/images/12959451251361486737.png
 
http://leetleech.org/images/71938925008019275143.png